<svg version="1.1" id="Layer_1" xmlns="http://www.w3.org/2000/svg" xmlns:xlink="http://www.w3.org/1999/xlink" x="0px" y="0px"
	 width="100%" viewBox="0 0 389 389" enable-background="new 0 0 389 389" xml:space="preserve">
<path fill="#000000" opacity="1.000000" stroke="none" 
	d="
M1.000000,144.000000 
	C1.000000,96.000008 1.000000,48.500015 1.000000,1.000019 
	C130.666641,1.000013 260.333282,1.000013 389.999939,1.000006 
	C389.999939,130.666611 389.999939,260.333221 389.999969,389.999878 
	C260.333405,389.999939 130.666824,389.999939 1.000117,389.999969 
	C1.000000,308.166656 1.000000,226.333328 1.000000,144.000000 
M144.003769,86.987427 
	C144.003769,86.987427 143.954361,86.947685 143.474426,87.113342 
	C143.300369,87.393333 143.126312,87.673325 142.998489,88.000305 
	C142.998489,88.000305 142.955399,87.952873 142.440887,88.118889 
	C142.210968,88.392593 141.981064,88.666298 141.307159,89.217697 
	C140.857742,89.744759 140.408325,90.271820 139.521255,91.099487 
	C139.327332,91.389763 139.133423,91.680038 139.000092,91.990532 
	C139.000092,91.990532 138.964813,91.937279 138.518600,92.155106 
	C138.236862,92.364174 138.071884,92.642448 137.720642,93.543221 
	C136.458969,94.935204 135.197296,96.327187 133.496078,98.044250 
	C133.312195,98.351112 133.128326,98.657982 133.003067,98.991013 
	C133.003067,98.991013 132.961655,98.941788 132.458099,99.126930 
	C132.237503,99.404060 132.016907,99.681190 131.304672,100.264549 
	C130.522400,101.109802 129.740128,101.955048 128.545319,103.105782 
	C128.378601,103.396362 128.211899,103.686943 127.736916,104.531593 
	C126.469742,105.929031 125.202568,107.326469 123.469818,109.051338 
	C123.246140,109.353996 123.022469,109.656654 122.341293,110.237274 
	C121.885666,110.778069 121.430046,111.318855 120.547287,112.129669 
	C120.379158,112.412903 120.211029,112.696144 119.719681,113.560448 
	C117.453941,115.934952 115.188202,118.309456 112.462425,121.031845 
	C112.238724,121.340622 112.015022,121.649399 111.321831,122.410194 
	C110.974121,122.976006 110.710480,123.620201 110.266586,124.096344 
	C91.708046,144.003250 73.077530,163.843384 54.582588,183.809113 
	C44.210659,195.005844 33.810024,206.292114 26.984585,220.115005 
	C20.503616,233.240250 16.159359,247.016785 14.705352,261.801331 
	C12.934567,279.806854 14.827989,297.195770 20.993763,314.105499 
	C26.279463,328.601624 34.332870,341.332184 44.924568,352.719666 
	C54.324192,362.825531 64.699234,371.520172 77.041550,377.391571 
	C99.116478,387.892883 122.499184,390.227997 146.450073,385.919037 
	C166.675049,382.280365 184.867691,374.013062 199.353424,359.161591 
	C217.684570,340.367554 235.671402,321.230774 253.534500,301.989105 
	C270.131531,284.111176 286.320648,265.855286 302.782318,247.850784 
	C318.355164,230.818420 333.958252,213.811874 349.713562,196.948639 
	C367.163940,178.271133 377.977661,156.646210 379.985626,129.994400 
	C379.991974,122.170151 380.060547,114.345093 379.959625,106.522224 
	C379.935272,104.636330 379.349609,102.757690 379.007996,100.026024 
	C378.925873,98.536469 379.032562,97.007843 378.733612,95.563148 
	C372.862274,67.189751 358.369690,44.088852 335.676331,26.217144 
	C324.822906,17.669733 312.862915,11.042202 298.777618,7.361069 
	C297.857330,7.250494 296.937073,7.139920 295.637177,6.956187 
	C295.637177,6.956187 295.253906,6.905503 294.713531,6.331379 
	C293.162079,6.250808 291.610626,6.170237 289.226898,5.922757 
	C287.281921,5.615223 285.339020,5.058172 283.391663,5.042217 
	C273.589569,4.961908 263.786346,5.022803 253.341293,4.987756 
	C252.816727,5.295213 252.292160,5.602670 251.354843,6.000792 
	C251.354843,6.000792 250.944168,6.100482 250.223938,6.026974 
	C249.501450,6.050557 248.778946,6.074139 247.369370,6.313052 
	C245.555298,6.916957 243.741211,7.520863 241.252853,8.048713 
	C240.445572,8.345819 239.638306,8.642926 238.217560,8.960547 
	C237.808960,8.982320 237.400375,9.004092 236.489120,9.169677 
	C236.266586,9.433763 236.044052,9.697848 235.231873,10.172694 
	C234.464432,10.488538 233.697006,10.804381 232.242523,11.034288 
	C231.420364,11.329799 230.598221,11.625309 229.075775,12.024586 
	C217.172852,16.768187 206.633408,23.697599 196.520844,32.211929 
	C196.238831,32.399864 196.043289,32.654278 195.998932,32.965034 
	C195.998932,32.965034 195.943466,32.930161 195.362228,33.251137 
	C192.819397,35.799320 190.276566,38.347504 187.220734,41.221355 
	C186.120132,42.404892 185.019516,43.588428 183.381241,45.146580 
	C182.189819,46.408443 180.998398,47.670307 179.249329,49.273899 
	C175.158661,53.822113 171.067978,58.370327 166.342972,63.075993 
	C165.202469,64.347809 164.061966,65.619621 162.349747,67.229431 
	C159.873672,69.714256 157.397614,72.199074 154.450928,75.024071 
	C154.220383,75.331444 153.989853,75.638809 153.422455,76.145409 
	C153.212204,76.309166 153.051010,76.511925 152.473969,77.045250 
	C152.316620,77.363487 152.159271,77.681725 151.774704,78.439667 
	C151.564636,78.703850 151.304718,78.902977 150.466095,79.316833 
	C150.254059,79.870461 150.042038,80.424095 149.287842,81.287697 
	C147.836960,82.771538 146.386093,84.255379 144.483978,86.040649 
	C144.306168,86.346832 144.128372,86.653015 144.003769,86.987427 
z"/>
<path fill="#ffffff" opacity="1.000000" stroke="none" 
	d="
M196.979019,32.045891 
	C206.633408,23.697599 217.172852,16.768187 229.770416,11.992186 
	C231.286575,11.679930 232.108063,11.400075 232.929565,11.120222 
	C233.697006,10.804381 234.464432,10.488538 235.762604,9.965162 
	C236.526169,9.513709 236.758972,9.269790 236.991776,9.025867 
	C237.400375,9.004092 237.808960,8.982320 238.862885,8.963547 
	C240.314514,8.685953 241.120834,8.405359 241.927139,8.124767 
	C243.741211,7.520863 245.555298,6.916957 247.912384,6.402554 
	C249.284973,6.361532 250.114578,6.231007 250.944168,6.100482 
	C250.944168,6.100482 251.354843,6.000792 251.876129,5.953596 
	C252.926132,5.615642 253.454834,5.324883 253.983536,5.034125 
	C263.786346,5.022803 273.589569,4.961908 283.391663,5.042217 
	C285.339020,5.058172 287.281921,5.615223 289.937256,6.237247 
	C292.183075,6.669660 293.718475,6.787582 295.253906,6.905503 
	C295.253906,6.905503 295.637177,6.956187 296.078613,7.226403 
	C297.418640,7.638489 298.317230,7.780360 299.215820,7.922230 
	C312.862915,11.042202 324.822906,17.669733 335.676331,26.217144 
	C358.369690,44.088852 372.862274,67.189751 378.733612,95.563148 
	C379.032562,97.007843 378.925873,98.536469 378.998779,100.930428 
	C378.998657,106.966309 378.897034,112.101089 379.049866,117.228287 
	C379.185913,121.793983 379.603607,126.351288 379.897034,130.912292 
	C377.977661,156.646210 367.163940,178.271133 349.713562,196.948639 
	C333.958252,213.811874 318.355164,230.818420 302.782318,247.850784 
	C286.320648,265.855286 270.131531,284.111176 253.534500,301.989105 
	C235.671402,321.230774 217.684570,340.367554 199.353424,359.161591 
	C184.867691,374.013062 166.675049,382.280365 146.450073,385.919037 
	C122.499184,390.227997 99.116478,387.892883 77.041550,377.391571 
	C64.699234,371.520172 54.324192,362.825531 44.924568,352.719666 
	C34.332870,341.332184 26.279463,328.601624 20.993763,314.105499 
	C14.827989,297.195770 12.934567,279.806854 14.705352,261.801331 
	C16.159359,247.016785 20.503616,233.240250 26.984585,220.115005 
	C33.810024,206.292114 44.210659,195.005844 54.582588,183.809113 
	C73.077530,163.843384 91.708046,144.003250 110.266586,124.096344 
	C110.710480,123.620201 110.974121,122.976006 111.815552,122.041885 
	C112.513672,121.343704 112.718071,121.013840 112.922470,120.683968 
	C115.188202,118.309456 117.453941,115.934952 120.082123,113.125717 
	C120.690262,112.457916 120.866875,112.180801 120.974419,111.859650 
	C121.430046,111.318855 121.885666,110.778069 122.826019,109.960541 
	C123.518967,109.363838 123.727188,109.043877 123.935394,108.723907 
	C125.202568,107.326469 126.469742,105.929031 128.093445,104.102402 
	C128.619278,103.382240 128.788574,103.091270 128.957870,102.800293 
	C129.740128,101.955048 130.522400,101.109802 131.792755,100.001083 
	C132.507782,99.472328 132.734711,99.207054 132.961639,98.941788 
	C132.961655,98.941788 133.003067,98.991013 133.198624,98.823860 
	C133.574646,98.344193 133.755127,98.031677 133.935608,97.719177 
	C135.197296,96.327187 136.458969,94.935204 138.070160,93.131409 
	C138.663223,92.501923 138.844940,92.241150 138.964813,91.937279 
	C138.964813,91.937279 139.000092,91.990532 139.192535,91.836166 
	C139.576279,91.387497 139.767609,91.093193 139.958923,90.798889 
	C140.408325,90.271820 140.857742,89.744759 141.778473,88.977905 
	C142.484985,88.476372 142.720200,88.214622 142.955399,87.952873 
	C142.955399,87.952873 142.998489,88.000305 143.185089,87.855606 
	C143.633209,87.507904 143.827438,87.253494 143.954361,86.947685 
	C143.954361,86.947685 144.003769,86.987427 144.200195,86.823441 
	C144.576157,86.352715 144.755692,86.045975 144.935226,85.739227 
	C146.386093,84.255379 147.836960,82.771538 149.809570,80.967987 
	C150.552521,80.111206 150.773743,79.574127 150.994949,79.037048 
	C151.304718,78.902977 151.564636,78.703850 152.101898,78.060532 
	C152.599014,77.372162 152.768951,77.062920 152.938873,76.753677 
	C153.051010,76.511925 153.212204,76.309166 153.856079,75.909164 
	C154.500336,75.343246 154.710938,75.013573 154.921539,74.683899 
	C157.397614,72.199074 159.873672,69.714256 162.872894,67.295761 
	C167.274780,68.044838 166.100189,64.654922 166.977295,62.918541 
	C171.067978,58.370327 175.158661,53.822113 179.940765,49.118771 
	C183.832993,49.217113 184.157364,47.215183 183.918915,44.771961 
	C185.019516,43.588428 186.120132,42.404892 187.866150,41.134834 
	C194.856583,42.559891 196.084183,41.218945 195.943466,32.930161 
	C195.943466,32.930161 195.998932,32.965034 196.176392,32.857719 
	C196.619583,32.566441 196.827972,32.331604 196.979019,32.045891 
M137.157242,125.551979 
	C137.784180,126.012970 138.411118,126.473961 139.391754,127.501663 
	C144.239304,132.294846 149.043732,137.132538 153.941574,141.873779 
	C180.456299,167.540726 206.967484,193.211472 233.544449,218.813889 
	C239.510956,224.561615 245.735275,230.041718 251.966827,236.257751 
	C258.187012,242.192886 264.407196,248.128021 270.906555,254.329559 
	C275.795532,249.087357 280.448914,244.159973 285.033905,239.169754 
	C298.183380,224.858215 311.305115,210.521210 325.028778,195.954269 
	C331.389374,189.067200 337.749939,182.180145 344.704590,174.980759 
	C345.514893,173.681839 346.325165,172.382935 347.049683,171.035767 
	C347.049683,171.035767 347.093384,171.123962 347.694305,170.807297 
	C349.426788,167.536819 351.159302,164.266327 353.413330,160.486633 
	C355.288300,154.661362 357.163269,148.836090 359.498383,142.425766 
	C359.726715,140.953613 359.955048,139.481445 360.560181,137.346176 
	C360.736481,135.575745 360.912781,133.805328 361.418884,131.590729 
	C361.388580,131.058731 361.358307,130.526733 361.707764,129.128387 
	C361.101807,118.086838 360.495850,107.045280 360.014587,95.359009 
	C359.722168,94.561111 359.429749,93.763214 359.206268,92.197578 
	C358.453186,89.799026 357.700104,87.400475 357.004211,84.417580 
	C356.717834,83.931328 356.431458,83.445076 356.136505,82.221985 
	C354.837982,79.453735 353.539459,76.685486 352.230499,73.309341 
	C351.747101,72.433434 351.263702,71.557526 350.764526,70.200081 
	C350.461609,69.844635 350.158691,69.489182 349.719269,68.366226 
	C339.613678,49.777374 324.755249,36.527016 304.619781,28.181374 
	C299.355682,26.666973 294.091614,25.152575 288.155914,23.341900 
	C287.428741,23.272835 286.701599,23.203770 285.423859,22.657791 
	C284.235809,22.594864 283.047760,22.531939 281.255615,22.232813 
	C280.826263,22.218714 280.396912,22.204615 279.286255,21.737766 
	C272.872955,21.904490 266.459656,22.071213 259.398438,22.183920 
	C258.980927,22.290327 258.563416,22.396736 257.467041,22.213938 
	C256.320526,22.525169 255.174011,22.836401 253.377563,23.099224 
	C252.964722,23.223640 252.551865,23.348055 251.369003,23.258928 
	C247.725433,24.329510 244.081848,25.400089 239.827164,26.592461 
	C239.253601,26.831161 238.680023,27.069860 237.497070,27.145380 
	C236.800400,27.562855 236.103729,27.980331 234.795502,28.539444 
	C234.238464,28.822042 233.681427,29.104643 232.410873,29.305407 
	C229.143906,31.107649 225.876923,32.909893 222.018326,34.898872 
	C221.016083,35.606747 220.013840,36.314621 218.371613,37.005363 
	C217.767075,37.557453 217.162537,38.109547 216.225739,38.760139 
	C216.225739,38.760139 216.018967,39.038250 215.352066,39.059467 
	C213.925552,40.388683 212.499023,41.717903 210.608124,43.223572 
	C210.308258,43.399315 210.102890,43.651897 209.324158,44.074886 
	C207.457809,45.989094 205.591446,47.903301 203.190430,50.128986 
	C202.070343,51.333553 200.950256,52.538120 199.196136,53.884151 
	C198.409821,54.871284 197.623489,55.858421 196.996613,56.996815 
	C196.996613,56.996815 196.844452,56.838257 196.213135,56.961201 
	C195.465561,57.969059 194.717987,58.976921 193.421066,60.341251 
	C191.544098,62.458992 189.667145,64.576729 187.135315,66.878311 
	C184.081070,70.247658 181.026810,73.617004 177.406998,77.332840 
	C174.892944,80.152611 172.378891,82.972382 169.216263,85.955025 
	C167.800568,87.631622 166.384857,89.308220 164.439560,91.360588 
	C162.889603,93.137215 161.339630,94.913841 159.123398,96.841545 
	C156.079239,100.226585 153.035080,103.611618 149.526978,107.245262 
	C149.217209,107.664711 148.907440,108.084167 147.973938,108.677116 
	C147.224625,109.685516 146.475311,110.693916 145.892410,111.895851 
	C145.892410,111.895851 145.697998,111.730438 145.047974,111.876862 
	C143.026749,114.248924 141.005508,116.620987 138.494446,119.292305 
	C138.005508,119.875069 137.516586,120.457840 136.412125,121.154099 
	C136.627197,122.410339 136.842270,123.666580 137.006180,124.991837 
	C137.006180,124.991837 137.078918,124.946175 137.157242,125.551979 
M70.294022,194.193130 
	C69.522400,195.109726 68.750771,196.026337 67.397240,197.181244 
	C66.573975,198.111343 65.750710,199.041428 64.327515,200.238739 
	C62.559952,202.182449 60.792389,204.126175 58.420677,206.327194 
	C56.888607,208.195435 55.356541,210.063690 53.318752,212.205536 
	C52.885056,212.820724 52.451363,213.435928 51.428104,214.360580 
	C49.600555,217.233734 47.773003,220.106873 45.432362,223.381989 
	C44.893787,224.561966 44.355213,225.741943 43.313374,227.329971 
	C42.797783,228.515137 42.282196,229.700302 41.276360,231.368042 
	C39.477882,236.578506 37.679405,241.788986 35.531635,247.633881 
	C35.284798,249.055527 35.037964,250.477188 34.385967,252.543884 
	C33.957455,255.694611 33.528938,258.845337 32.894638,262.777313 
	C32.880856,263.849731 32.867069,264.922119 32.548725,266.756226 
	C33.544983,276.736206 34.541245,286.716187 35.351334,297.460449 
	C43.011654,334.328003 72.022583,362.554901 109.108643,369.306793 
	C121.191345,371.506561 133.174332,371.737396 145.838715,368.062134 
	C161.297379,365.208252 174.912521,358.389221 185.971237,347.386658 
	C200.448593,332.982819 214.290588,317.937927 228.326263,303.093506 
	C237.336578,293.564026 246.270615,283.959442 255.045700,274.214600 
	C256.088318,273.056763 256.829407,269.857178 256.156006,269.202393 
	C250.377380,263.583405 244.240738,258.332581 237.887939,252.386230 
	C236.925217,251.211990 235.962509,250.037735 234.723526,248.303757 
	C233.491058,247.199158 232.258575,246.094559 230.760025,244.401962 
	C229.857788,243.884186 228.955551,243.366409 227.920044,242.194687 
	C225.356766,239.766098 222.793488,237.337509 219.917175,234.305405 
	C217.283646,231.854645 214.650116,229.403885 211.733414,226.354889 
	C209.426270,224.256866 207.119141,222.158829 204.563522,219.461227 
	C202.750320,217.848511 200.937103,216.235794 198.834686,214.072174 
	C197.295609,212.687439 195.756531,211.302689 193.900238,209.317123 
	C191.263779,206.886902 188.627304,204.456680 185.794907,201.558029 
	C185.517014,201.376465 185.239120,201.194885 184.720215,200.427734 
	C183.462173,199.339722 182.204117,198.251724 180.714722,196.663834 
	C180.414673,196.462570 180.114624,196.261322 179.578995,195.446426 
	C175.734283,191.925797 171.889572,188.405167 167.755905,184.291702 
	C165.136002,181.872513 162.516083,179.453308 159.637955,176.427963 
	C155.086990,172.082047 150.536011,167.736130 145.664734,162.905014 
	C145.198563,162.570541 144.732407,162.236053 143.939026,161.299149 
	C137.508362,155.083450 131.066452,148.879288 124.654350,142.644516 
	C122.890495,140.929443 121.273178,140.118347 119.243965,142.381912 
	C113.618927,148.656586 107.902519,154.849335 101.605484,161.357056 
	C98.715744,164.517288 95.826012,167.677505 92.350334,171.121140 
	C91.236664,172.415039 90.123001,173.708939 88.466125,175.247284 
	C87.986618,175.860046 87.507118,176.472794 86.443275,177.305588 
	C85.641800,178.241028 84.840324,179.176468 83.431717,180.374374 
	C79.237030,184.897247 75.042343,189.420105 70.294022,194.193130 
z"/>
<path fill="#000000" opacity="1.000000" stroke="none" 
	d="
M195.652847,33.090649 
	C196.084183,41.218945 194.856583,42.559891 188.122650,40.972000 
	C190.276566,38.347504 192.819397,35.799320 195.652847,33.090649 
z"/>
<path fill="#000000" opacity="1.000000" stroke="none" 
	d="
M379.941315,130.453339 
	C379.603607,126.351288 379.185913,121.793983 379.049866,117.228287 
	C378.897034,112.101089 378.998657,106.966309 379.005829,101.355270 
	C379.349609,102.757690 379.935272,104.636330 379.959625,106.522224 
	C380.060547,114.345093 379.991974,122.170151 379.941315,130.453339 
z"/>
<path fill="#000000" opacity="1.000000" stroke="none" 
	d="
M166.660126,62.997269 
	C166.100189,64.654922 167.274780,68.044838 163.158752,67.126770 
	C164.061966,65.619621 165.202469,64.347809 166.660126,62.997269 
z"/>
<path fill="#213E3A" opacity="1.000000" stroke="none" 
	d="
M183.650085,44.959270 
	C184.157364,47.215183 183.832993,49.217113 180.219604,48.947906 
	C180.998398,47.670307 182.189819,46.408443 183.650085,44.959270 
z"/>
<path fill="#213E3A" opacity="1.000000" stroke="none" 
	d="
M294.983704,6.618442 
	C293.718475,6.787582 292.183075,6.669660 290.353394,6.320702 
	C291.610626,6.170237 293.162079,6.250808 294.983704,6.618442 
z"/>
<path fill="#213E3A" opacity="1.000000" stroke="none" 
	d="
M241.589996,8.086739 
	C241.120834,8.405359 240.314514,8.685953 239.169617,8.953290 
	C239.638306,8.642926 240.445572,8.345819 241.589996,8.086739 
z"/>
<path fill="#213E3A" opacity="1.000000" stroke="none" 
	d="
M232.586044,11.077254 
	C232.108063,11.400075 231.286575,11.679930 230.120575,11.940302 
	C230.598221,11.625309 231.420364,11.329799 232.586044,11.077254 
z"/>
<path fill="#213E3A" opacity="1.000000" stroke="none" 
	d="
M298.996704,7.641650 
	C298.317230,7.780360 297.418640,7.638489 296.268433,7.262982 
	C296.937073,7.139920 297.857330,7.250494 298.996704,7.641650 
z"/>
<path fill="#213E3A" opacity="1.000000" stroke="none" 
	d="
M250.584045,6.063728 
	C250.114578,6.231007 249.284973,6.361532 248.255920,6.294889 
	C248.778946,6.074139 249.501450,6.050557 250.584045,6.063728 
z"/>
<path fill="#213E3A" opacity="1.000000" stroke="none" 
	d="
M253.662415,5.010941 
	C253.454834,5.324883 252.926132,5.615642 252.082520,5.908263 
	C252.292160,5.602670 252.816727,5.295213 253.662415,5.010941 
z"/>
<path fill="#213E3A" opacity="1.000000" stroke="none" 
	d="
M150.730530,79.176941 
	C150.773743,79.574127 150.552521,80.111206 150.080658,80.813004 
	C150.042038,80.424095 150.254059,79.870461 150.730530,79.176941 
z"/>
<path fill="#213E3A" opacity="1.000000" stroke="none" 
	d="
M236.740448,9.097774 
	C236.758972,9.269790 236.526169,9.513709 236.057434,9.859781 
	C236.044052,9.697848 236.266586,9.433763 236.740448,9.097774 
z"/>
<path fill="#213E3A" opacity="1.000000" stroke="none" 
	d="
M112.692444,120.857910 
	C112.718071,121.013840 112.513672,121.343704 112.050293,121.815872 
	C112.015022,121.649399 112.238724,121.340622 112.692444,120.857910 
z"/>
<path fill="#213E3A" opacity="1.000000" stroke="none" 
	d="
M120.760849,111.994659 
	C120.866875,112.180801 120.690262,112.457916 120.243729,112.835190 
	C120.211029,112.696144 120.379158,112.412903 120.760849,111.994659 
z"/>
<path fill="#213E3A" opacity="1.000000" stroke="none" 
	d="
M123.702606,108.887627 
	C123.727188,109.043877 123.518967,109.363838 123.054764,109.821556 
	C123.022469,109.656654 123.246140,109.353996 123.702606,108.887627 
z"/>
<path fill="#213E3A" opacity="1.000000" stroke="none" 
	d="
M128.751587,102.953041 
	C128.788574,103.091270 128.619278,103.382240 128.247589,103.825363 
	C128.211899,103.686943 128.378601,103.396362 128.751587,102.953041 
z"/>
<path fill="#213E3A" opacity="1.000000" stroke="none" 
	d="
M132.709869,99.034355 
	C132.734711,99.207054 132.507782,99.472328 132.038574,99.847969 
	C132.016907,99.681190 132.237503,99.404060 132.709869,99.034355 
z"/>
<path fill="#213E3A" opacity="1.000000" stroke="none" 
	d="
M133.715851,97.881714 
	C133.755127,98.031677 133.574646,98.344193 133.169312,98.810776 
	C133.128326,98.657982 133.312195,98.351112 133.715851,97.881714 
z"/>
<path fill="#213E3A" opacity="1.000000" stroke="none" 
	d="
M138.741699,92.046188 
	C138.844940,92.241150 138.663223,92.501923 138.221680,92.854774 
	C138.071884,92.642448 138.236862,92.364174 138.741699,92.046188 
z"/>
<path fill="#213E3A" opacity="1.000000" stroke="none" 
	d="
M139.740082,90.949188 
	C139.767609,91.093193 139.576279,91.387497 139.162231,91.826057 
	C139.133423,91.680038 139.327332,91.389763 139.740082,90.949188 
z"/>
<path fill="#213E3A" opacity="1.000000" stroke="none" 
	d="
M142.698151,88.035881 
	C142.720200,88.214622 142.484985,88.476372 142.000473,88.839066 
	C141.981064,88.666298 142.210968,88.392593 142.698151,88.035881 
z"/>
<path fill="#213E3A" opacity="1.000000" stroke="none" 
	d="
M143.714386,87.030518 
	C143.827438,87.253494 143.633209,87.507904 143.161957,87.832123 
	C143.126312,87.673325 143.300369,87.393333 143.714386,87.030518 
z"/>
<path fill="#213E3A" opacity="1.000000" stroke="none" 
	d="
M144.709595,85.889938 
	C144.755692,86.045975 144.576157,86.352715 144.173584,86.809326 
	C144.128372,86.653015 144.306168,86.346832 144.709595,85.889938 
z"/>
<path fill="#213E3A" opacity="1.000000" stroke="none" 
	d="
M152.706421,76.899460 
	C152.768951,77.062920 152.599014,77.372162 152.215500,77.840683 
	C152.159271,77.681725 152.316620,77.363487 152.706421,76.899460 
z"/>
<path fill="#213E3A" opacity="1.000000" stroke="none" 
	d="
M154.686234,74.853989 
	C154.710938,75.013573 154.500336,75.343246 154.024521,75.809555 
	C153.989853,75.638809 154.220383,75.331444 154.686234,74.853989 
z"/>
<path fill="#213E3A" opacity="1.000000" stroke="none" 
	d="
M196.749939,32.128910 
	C196.827972,32.331604 196.619583,32.566441 196.144028,32.862785 
	C196.043289,32.654278 196.238831,32.399864 196.749939,32.128910 
z"/>
<path fill="#FEFEFE" opacity="1.000000" stroke="none" 
	d="
M252.139023,23.472469 
	C252.551865,23.348055 252.964722,23.223640 253.914185,23.348949 
	C255.682495,23.233498 256.914185,22.868320 258.145905,22.503143 
	C258.563416,22.396736 258.980927,22.290327 260.052368,22.451546 
	C267.126709,22.542952 273.547119,22.366734 279.967560,22.190514 
	C280.396912,22.204615 280.826263,22.218714 281.680481,22.629244 
	C283.395050,23.062017 284.684753,23.098360 285.974426,23.134703 
	C286.701599,23.203770 287.428741,23.272835 288.656799,23.780975 
	C294.438416,26.060856 299.719177,27.901665 305.277588,29.951447 
	C318.625916,38.644543 328.723572,49.830040 333.671967,64.645020 
	C337.063568,74.799240 338.734406,85.528214 341.133240,96.374207 
	C341.128174,97.498039 341.164337,98.247940 341.132935,99.438354 
	C341.120361,102.251785 341.175385,104.624710 341.173523,107.399353 
	C341.107452,108.881699 341.098267,109.962334 340.841980,111.329994 
	C340.511566,113.407372 340.428253,115.197716 340.272034,117.324799 
	C340.154755,118.118202 340.110382,118.574875 339.819702,119.294991 
	C339.174011,121.703079 338.774628,123.847717 338.263245,126.351006 
	C337.817566,128.161301 337.483826,129.612946 336.894318,131.286316 
	C336.189392,133.013077 335.740234,134.518112 335.196320,136.377213 
	C334.985138,137.684845 334.868683,138.638397 334.444641,139.746613 
	C333.085602,141.933762 332.034210,143.966217 330.803284,146.288879 
	C323.545776,155.741394 317.005951,165.389252 309.272522,173.960144 
	C295.229004,189.524521 280.429443,204.404846 266.043762,219.663406 
	C261.156921,224.846802 256.566681,230.309784 251.840912,235.645004 
	C245.735275,230.041718 239.510956,224.561615 233.544449,218.813889 
	C206.967484,193.211472 180.456299,167.540726 153.941574,141.873779 
	C149.043732,137.132538 144.239304,132.294846 139.201874,126.901215 
	C138.367630,125.849236 137.723282,125.397705 137.078918,124.946175 
	C137.078918,124.946175 137.006180,124.991837 137.065613,124.569298 
	C137.092575,123.111374 137.060120,122.075996 137.027649,121.040611 
	C137.516586,120.457840 138.005508,119.875069 139.083527,119.123962 
	C141.681076,116.547234 143.689545,114.138840 145.697998,111.730438 
	C145.697998,111.730438 145.892410,111.895851 146.174622,111.817749 
	C147.170441,110.660973 147.884064,109.582298 148.597672,108.503624 
	C148.907440,108.084167 149.217209,107.664711 150.103851,107.112442 
	C153.717041,103.549896 156.753357,100.120178 159.789673,96.690460 
	C161.339630,94.913841 162.889603,93.137215 165.050507,91.152481 
	C167.062576,89.226967 168.463699,87.509560 169.864838,85.792145 
	C172.378891,82.972382 174.892944,80.152611 178.033554,77.145111 
	C181.703461,73.536407 184.746826,70.115440 187.790176,66.694466 
	C189.667145,64.576729 191.544098,62.458992 194.039764,60.149040 
	C195.387131,58.917305 196.115799,57.877785 196.844452,56.838261 
	C196.844452,56.838257 196.996613,56.996815 197.268372,56.923336 
	C198.303482,55.814133 199.066818,54.778408 199.830154,53.742687 
	C200.950256,52.538120 202.070343,51.333553 203.811386,49.988785 
	C206.285583,47.892830 208.138809,45.937073 209.992050,43.981312 
	C210.102890,43.651897 210.308258,43.399315 211.193176,43.170151 
	C213.191818,41.757240 214.605392,40.397747 216.018967,39.038254 
	C216.018967,39.038250 216.225739,38.760139 216.732513,38.781239 
	C217.830063,38.209057 218.420837,37.615776 219.011597,37.022491 
	C220.013840,36.314621 221.016083,35.606747 222.689941,34.875225 
	C226.615845,33.030132 229.870117,31.208691 233.124390,29.387245 
	C233.681427,29.104643 234.238464,28.822042 235.415771,28.606998 
	C236.726181,28.219223 237.416321,27.763893 238.106461,27.308559 
	C238.680023,27.069860 239.253601,26.831161 240.539078,26.677282 
	C244.880341,25.665560 248.509674,24.569016 252.139023,23.472469 
z"/>
<path fill="#5FCA87" opacity="1.000000" stroke="none" 
	d="
M204.811996,220.060806 
	C207.119141,222.158829 209.426270,224.256866 211.884796,227.050934 
	C212.357849,229.830902 212.679535,231.914841 212.832092,234.297638 
	C211.795517,235.575455 210.609695,236.426315 210.149734,237.569275 
	C209.685242,238.723434 209.940414,240.167221 209.880310,241.484131 
	C211.199127,240.953720 212.916107,240.765900 213.739426,239.809097 
	C214.852707,238.515289 215.279739,236.630966 216.375931,235.000259 
	C217.500015,235.005051 218.249405,235.009598 218.998886,235.435638 
	C218.045639,239.993347 216.556534,244.090103 216.248398,248.273834 
	C215.567551,257.518036 204.968903,260.547241 203.618637,269.226868 
	C203.611160,269.274994 203.023117,269.232819 202.115540,269.232819 
	C202.706039,264.189972 201.620316,260.007446 195.717590,258.938599 
	C195.221359,258.848724 194.548447,256.332062 194.786789,256.171204 
	C195.876312,255.435745 197.290756,255.205750 198.533585,254.667465 
	C200.244308,253.926575 203.195557,253.257568 203.343658,252.230240 
	C203.770218,249.271484 201.595093,247.993362 198.596741,247.955704 
	C196.840759,247.933655 193.886917,247.901260 193.524597,247.024887 
	C189.820175,238.064758 186.172760,242.378357 182.336899,246.765350 
	C181.696930,247.497269 180.593765,247.838089 179.998016,248.591614 
	C178.984955,249.872986 177.269287,251.508896 177.485641,252.698013 
	C178.540237,258.494385 176.375549,265.054413 182.121307,269.841888 
	C185.463593,272.626740 184.479294,277.806763 181.628616,280.264923 
	C177.693436,283.658264 173.556595,287.141266 170.743607,291.402679 
	C168.755264,294.414825 167.763367,296.003418 163.716721,295.333588 
	C161.653992,294.992126 158.494095,297.182465 156.986252,299.125519 
	C156.084991,300.286926 157.365173,303.194641 157.769760,305.297180 
	C158.041565,306.709686 158.838577,308.095490 158.803513,309.478088 
	C158.714508,312.989960 158.289749,316.493256 157.632477,320.011780 
	C155.843719,320.348999 154.421860,320.674500 152.997391,320.609375 
	C152.058350,314.689087 152.056351,314.971008 147.064880,317.010590 
	C144.954453,317.872955 141.768265,317.535736 139.634415,316.538361 
	C137.070847,315.340210 135.107925,312.856964 132.481430,310.580383 
	C131.221802,311.231781 129.240570,312.256317 126.551582,313.646881 
	C127.958679,314.947235 128.929565,316.551270 129.727646,316.469452 
	C135.759369,315.851135 135.130188,320.502899 135.817245,324.299072 
	C132.832718,327.153015 130.343994,328.182007 127.411034,324.389313 
	C125.310211,321.672699 122.960724,323.185852 121.355942,325.481262 
	C119.213043,328.546356 117.074165,329.040802 114.845619,325.695923 
	C112.664680,322.422546 110.791100,322.879089 108.646027,325.935150 
	C106.369339,322.246094 104.446632,318.621918 102.266228,314.511993 
	C100.703522,314.323273 98.177841,314.018280 95.677063,313.716278 
	C95.022331,315.043182 94.389008,316.326721 93.461533,318.206390 
	C90.235672,315.403778 87.104744,313.139465 84.704216,310.265137 
	C84.131805,309.579712 86.130074,306.896606 86.681282,305.053192 
	C86.915382,304.270264 86.467857,303.283539 86.315155,302.292328 
	C83.767807,303.096130 81.562958,303.791840 79.358109,304.487549 
	C78.755730,302.156158 78.161766,299.822540 77.540924,297.496094 
	C77.457863,297.184845 77.204559,296.922974 77.087578,296.616272 
	C74.811028,290.648529 75.446129,288.696991 81.432785,285.430176 
	C80.138031,283.700897 79.170952,281.686981 77.586578,280.490295 
	C75.903000,279.218719 73.634132,278.722046 71.642731,277.525818 
	C71.757408,276.447601 71.850189,275.730560 72.325836,274.935486 
	C73.471741,273.269989 74.544518,271.753204 74.926605,270.078827 
	C75.528427,267.441559 75.665741,264.698364 75.813164,261.699829 
	C74.346130,260.668365 73.102425,259.861298 71.778976,259.218384 
	C64.736282,255.797241 59.409508,259.099548 59.482227,266.796356 
	C59.489811,267.598938 59.376362,268.402618 59.395237,268.138031 
	C57.431828,265.639679 55.215771,262.819824 52.985909,259.622498 
	C50.612228,250.856934 51.565601,249.264359 59.881943,247.621231 
	C60.135483,247.571121 60.318604,247.164581 60.466904,246.999527 
	C59.706974,242.256485 58.978321,237.582886 58.205273,232.916656 
	C57.308472,227.503403 59.141701,219.736755 62.006474,219.410660 
	C68.360336,218.687363 68.024467,214.402359 68.217957,209.737000 
	C73.478065,204.038681 73.473320,204.046082 79.889282,208.158752 
	C80.431419,208.506271 81.162277,208.567154 81.688034,208.930923 
	C83.135994,209.932770 85.656601,210.994843 85.685448,212.087677 
	C85.738533,214.098740 84.780251,216.573105 83.403397,218.093750 
	C80.596352,221.194000 77.231430,223.789154 73.679939,226.964706 
	C78.420227,230.242523 78.648758,233.531189 75.017555,237.315842 
	C74.196991,238.171066 74.509819,240.113739 74.164444,241.856873 
	C73.577774,244.068314 72.406166,246.221069 72.937218,247.801788 
	C73.277390,248.814285 76.129982,248.982666 78.067673,249.829865 
	C79.609329,251.499176 81.457840,252.641418 82.174057,254.278900 
	C84.453629,259.490662 89.538544,256.264709 93.233452,258.887421 
	C93.595467,256.877838 93.615273,255.363510 94.188202,254.099960 
	C94.547539,253.307480 95.738091,252.891876 96.555710,252.307190 
	C98.212921,254.839584 101.233612,257.384979 101.209602,259.901367 
	C101.173065,263.731018 103.565842,264.649933 105.755524,265.431152 
	C106.892395,265.836731 108.961006,264.177948 110.364967,263.126312 
	C111.645973,262.166779 112.390213,260.409027 113.734467,259.631012 
	C117.638840,257.371277 121.666420,255.287888 125.810104,253.520935 
	C126.376671,253.279358 128.184982,255.051880 128.866394,256.215210 
	C129.639297,257.534760 129.320923,259.682800 130.291901,260.665100 
	C135.163940,265.593994 133.873550,272.591461 127.531334,275.164124 
	C126.323662,275.653992 125.045372,276.875183 124.638115,278.049713 
	C124.435425,278.634308 126.175865,279.841644 126.957207,280.830566 
	C128.096176,282.272095 129.552002,283.627686 130.159882,285.281891 
	C130.886093,287.258057 130.715088,289.547089 131.237442,291.623993 
	C131.425735,292.372559 132.497208,292.898956 133.165634,293.526764 
	C133.618057,292.768188 134.223892,292.059692 134.491409,291.240723 
	C135.076279,289.450195 134.891434,286.876923 136.074356,285.903473 
	C141.698029,281.275787 141.138733,274.576111 142.268219,268.550934 
	C143.042892,264.418488 141.963394,259.886841 143.003571,255.867722 
	C144.611038,249.656616 147.556549,243.803207 149.448349,237.648621 
	C150.191727,235.230194 149.643890,232.409149 149.649231,229.771393 
	C149.653534,227.658585 149.133072,225.415497 149.672775,223.458359 
	C151.037903,218.507996 149.898972,215.254852 145.520142,212.711975 
	C144.131271,211.905457 143.108536,210.475189 141.729462,209.643326 
	C139.991943,208.595261 138.122421,207.672104 136.193222,207.066650 
	C134.748093,206.613113 133.118622,206.746902 130.455536,206.527115 
	C132.650085,204.104370 134.032364,202.578354 135.371719,201.099716 
	C134.685867,199.912949 134.078461,198.861893 133.471039,197.810837 
	C133.713776,197.516068 133.956497,197.221298 134.199234,196.926544 
	C135.672073,197.760269 137.144897,198.593979 138.767670,199.512573 
	C140.206009,197.433945 141.816559,195.515045 142.977402,193.354523 
	C146.950897,185.959183 144.777924,181.944473 136.560959,178.677841 
	C133.494461,177.458740 131.307419,174.027405 127.999107,170.930557 
	C130.336716,170.382584 131.127136,170.004501 131.892685,170.049515 
	C136.420074,170.315796 137.427948,168.380264 136.139374,164.213196 
	C135.551056,162.310654 136.013901,160.083054 136.346497,158.059204 
	C139.217407,159.377548 141.741821,160.639557 144.266235,161.901581 
	C144.732407,162.236053 145.198563,162.570541 145.846222,163.477753 
	C149.091904,170.043198 153.149002,174.975372 159.896179,177.034119 
	C162.516083,179.453308 165.136002,181.872513 167.897766,184.960846 
	C170.020630,191.301300 174.565918,194.077713 179.814575,196.060059 
	C180.114624,196.261322 180.414673,196.462570 180.860352,197.269928 
	C182.324402,198.921783 183.642822,199.967560 184.961227,201.013321 
	C185.239120,201.194885 185.517014,201.376465 185.906799,202.157150 
	C187.533813,206.537674 188.963654,210.416672 194.217468,209.917938 
	C195.756531,211.302689 197.295609,212.687439 198.987885,214.723999 
	C201.031372,216.937485 202.921692,218.499146 204.811996,220.060806 
z"/>
<path fill="#" opacity="1.000000" stroke="none" 
	d="
M74.300919,241.555832 
	C74.509819,240.113739 74.196991,238.171066 75.017555,237.315842 
	C78.648758,233.531189 78.420227,230.242523 73.679939,226.964706 
	C77.231430,223.789154 80.596352,221.194000 83.403397,218.093750 
	C84.780251,216.573105 85.738533,214.098740 85.685448,212.087677 
	C85.656601,210.994843 83.135994,209.932770 81.688034,208.930923 
	C81.162277,208.567154 80.431419,208.506271 79.889282,208.158752 
	C73.473320,204.046082 73.478065,204.038681 67.843147,209.739243 
	C65.166817,211.336517 63.083557,212.668564 60.666901,214.000458 
	C59.888973,214.000427 59.444439,214.000519 58.770985,213.766006 
	C58.360950,212.687378 58.179840,211.843338 58.147560,210.667297 
	C58.539204,208.913483 58.782017,207.491684 59.024826,206.069901 
	C60.792389,204.126175 62.559952,202.182449 65.012238,200.116638 
	C66.464432,199.996094 67.231903,199.997635 68.344131,200.152512 
	C70.544479,200.178543 72.400078,200.051270 74.255669,199.923996 
	C73.836807,197.950348 73.417946,195.976700 73.264977,193.860535 
	C74.353996,193.144943 75.177124,192.571854 76.152817,192.320801 
	C77.239761,194.890808 77.938675,197.284286 79.201981,199.329071 
	C79.895157,200.451050 81.540070,200.985046 82.755836,201.784164 
	C83.263618,200.501984 84.023743,199.259430 84.232498,197.930283 
	C84.891922,193.731720 84.465530,189.098846 86.152489,185.407898 
	C87.532730,182.388031 88.235191,180.040985 87.027611,177.085556 
	C87.507118,176.472794 87.986618,175.860046 89.112930,175.111938 
	C90.818581,173.596970 91.877426,172.217346 92.936264,170.837723 
	C95.826012,167.677505 98.715744,164.517288 102.309700,161.197266 
	C104.342682,161.024384 105.671448,161.011276 107.020988,161.373444 
	C108.658127,162.765076 110.443588,164.846603 111.862808,164.621262 
	C119.809830,163.359573 128.143738,162.735291 134.305023,156.065796 
	C135.073349,156.755753 135.536682,157.379318 136.000000,158.002884 
	C136.013901,160.083054 135.551056,162.310654 136.139374,164.213196 
	C137.427948,168.380264 136.420074,170.315796 131.892685,170.049515 
	C131.127136,170.004501 130.336716,170.382584 127.999107,170.930557 
	C131.307419,174.027405 133.494461,177.458740 136.560959,178.677841 
	C144.777924,181.944473 146.950897,185.959183 142.977402,193.354523 
	C141.816559,195.515045 140.206009,197.433945 138.767670,199.512573 
	C137.144897,198.593979 135.672073,197.760269 134.199234,196.926544 
	C133.956497,197.221298 133.713776,197.516068 133.471039,197.810837 
	C134.078461,198.861893 134.685867,199.912949 135.371719,201.099716 
	C134.032364,202.578354 132.650085,204.104370 130.455536,206.527115 
	C133.118622,206.746902 134.748093,206.613113 136.193222,207.066650 
	C138.122421,207.672104 139.991943,208.595261 141.729462,209.643326 
	C143.108536,210.475189 144.131271,211.905457 145.520142,212.711975 
	C149.898972,215.254852 151.037903,218.507996 149.672775,223.458359 
	C149.133072,225.415497 149.653534,227.658585 149.649231,229.771393 
	C149.643890,232.409149 150.191727,235.230194 149.448349,237.648621 
	C147.556549,243.803207 144.611038,249.656616 143.003571,255.867722 
	C141.963394,259.886841 143.042892,264.418488 142.268219,268.550934 
	C141.138733,274.576111 141.698029,281.275787 136.074356,285.903473 
	C134.891434,286.876923 135.076279,289.450195 134.491409,291.240723 
	C134.223892,292.059692 133.618057,292.768188 133.165634,293.526764 
	C132.497208,292.898956 131.425735,292.372559 131.237442,291.623993 
	C130.715088,289.547089 130.886093,287.258057 130.159882,285.281891 
	C129.552002,283.627686 128.096176,282.272095 126.957207,280.830566 
	C126.175865,279.841644 124.435425,278.634308 124.638115,278.049713 
	C125.045372,276.875183 126.323662,275.653992 127.531334,275.164124 
	C133.873550,272.591461 135.163940,265.593994 130.291901,260.665100 
	C129.320923,259.682800 129.639297,257.534760 128.866394,256.215210 
	C128.184982,255.051880 126.376671,253.279358 125.810104,253.520935 
	C121.666420,255.287888 117.638840,257.371277 113.734467,259.631012 
	C112.390213,260.409027 111.645973,262.166779 110.364967,263.126312 
	C108.961006,264.177948 106.892395,265.836731 105.755524,265.431152 
	C103.565842,264.649933 101.173065,263.731018 101.209602,259.901367 
	C101.233612,257.384979 98.212921,254.839584 96.555710,252.307190 
	C95.738091,252.891876 94.547539,253.307480 94.188202,254.099960 
	C93.615273,255.363510 93.595467,256.877838 93.233452,258.887421 
	C89.538544,256.264709 84.453629,259.490662 82.174057,254.278900 
	C81.457840,252.641418 79.609329,251.499176 78.248718,249.585297 
	C79.757843,247.546906 81.297325,246.053482 82.879539,245.000885 
	C83.748108,246.884827 84.573929,248.327927 85.399750,249.771042 
	C86.208031,248.514664 87.016327,247.258286 87.824631,246.001923 
	C86.400467,245.279068 84.976311,244.556198 83.704819,243.509064 
	C83.487465,241.166595 83.117455,239.148392 82.747444,237.130173 
	C80.888832,237.700806 78.938217,238.079453 77.204369,238.910400 
	C76.073654,239.452316 75.257820,240.651245 74.300919,241.555832 
M90.227386,191.439789 
	C95.558708,191.142883 93.805984,188.114410 93.104576,184.472046 
	C90.516113,186.645676 86.565208,187.036865 90.227386,191.439789 
z"/>
<path fill="#000000" opacity="1.000000" stroke="none" 
	d="
M238.211060,252.971771 
	C244.240738,258.332581 250.377380,263.583405 256.156006,269.202393 
	C256.829407,269.857178 256.088318,273.056763 255.045700,274.214600 
	C246.270615,283.959442 237.336578,293.564026 228.326263,303.093506 
	C214.290588,317.937927 200.448593,332.982819 185.971237,347.386658 
	C174.912521,358.389221 161.297379,365.208252 145.158905,367.798218 
	C141.414185,367.022430 138.333023,366.590515 135.289520,365.973053 
	C132.917923,365.491882 130.593140,364.779877 127.031105,363.854431 
	C131.488754,360.507172 133.335724,356.208679 138.644287,357.700134 
	C139.767105,358.015594 141.776535,356.579132 142.826477,355.441376 
	C144.691422,353.420532 146.215149,351.063568 147.737976,348.752563 
	C150.951096,343.876373 154.513123,343.144440 160.016678,346.893585 
	C161.031372,345.336761 162.012558,343.769318 163.061417,342.248505 
	C163.579803,341.496857 164.127731,340.343109 164.825394,340.206940 
	C168.998306,339.392517 170.861526,337.644318 170.767990,332.791412 
	C170.704178,329.479767 173.365082,326.135406 174.673691,322.753815 
	C174.848160,322.302948 174.232712,321.546478 174.139465,320.642578 
	C177.878937,316.269623 181.461990,312.185577 185.330841,307.934570 
	C187.382675,305.834869 189.148697,303.902130 191.210480,301.806641 
	C197.771423,294.799988 204.036636,287.956116 210.598053,281.006958 
	C211.722336,279.697784 212.550415,278.493927 213.666443,277.183563 
	C214.730576,276.172058 215.506775,275.267059 216.603729,274.247864 
	C222.995697,267.531494 229.066910,260.929291 235.448822,254.200317 
	C236.576706,253.706268 237.393875,253.339020 238.211060,252.971771 
z"/>
<path fill="#000000" opacity="1.000000" stroke="none" 
	d="
M251.903870,235.951385 
	C256.566681,230.309784 261.156921,224.846802 266.043762,219.663406 
	C280.429443,204.404846 295.229004,189.524521 309.272522,173.960144 
	C317.005951,165.389252 323.545776,155.741394 331.235413,146.289963 
	C339.022278,146.081055 340.089386,147.731857 337.204071,154.230850 
	C336.869049,154.985443 336.361328,155.864609 336.487732,156.589401 
	C337.184479,160.584671 337.841095,164.392975 332.982666,166.522293 
	C332.316406,166.814316 332.420715,168.667755 331.976501,169.717102 
	C331.506592,170.827133 331.045624,172.133972 330.167938,172.845642 
	C325.917206,176.292206 321.123383,178.761627 319.309479,184.905472 
	C317.382080,191.433563 317.876068,193.978134 324.437775,196.194229 
	C311.305115,210.521210 298.183380,224.858215 285.033905,239.169754 
	C280.448914,244.159973 275.795532,249.087357 270.906555,254.329559 
	C264.407196,248.128021 258.187012,242.192886 251.903870,235.951385 
z"/>
<path fill="#000000" opacity="1.000000" stroke="none" 
	d="
M173.983063,320.931519 
	C174.232712,321.546478 174.848160,322.302948 174.673691,322.753815 
	C173.365082,326.135406 170.704178,329.479767 170.767990,332.791412 
	C170.861526,337.644318 168.998306,339.392517 164.825394,340.206940 
	C164.127731,340.343109 163.579803,341.496857 163.061417,342.248505 
	C162.012558,343.769318 161.031372,345.336761 160.016678,346.893585 
	C154.513123,343.144440 150.951096,343.876373 147.737976,348.752563 
	C146.215149,351.063568 144.691422,353.420532 142.826477,355.441376 
	C141.776535,356.579132 139.767105,358.015594 138.644287,357.700134 
	C133.335724,356.208679 131.488754,360.507172 127.031105,363.854431 
	C130.593140,364.779877 132.917923,365.491882 135.289520,365.973053 
	C138.333023,366.590515 141.414185,367.022430 144.759216,367.801758 
	C133.174332,371.737396 121.191345,371.506561 109.108643,369.306793 
	C72.022583,362.554901 43.011654,334.328003 35.718102,297.234253 
	C36.965332,298.212921 37.955311,299.353180 38.709892,300.632294 
	C50.714272,320.981842 68.556328,333.986267 90.759148,340.965363 
	C103.856171,345.082184 117.377502,346.658447 131.425049,343.045471 
	C135.880264,341.966125 139.927505,340.887634 144.349579,339.809509 
	C148.779343,337.986481 153.180450,336.675629 156.811020,334.223785 
	C162.797119,330.181122 168.285126,325.400879 173.983063,320.931519 
z"/>
<path fill="#000000" opacity="1.000000" stroke="none" 
	d="
M131.017105,343.046326 
	C117.377502,346.658447 103.856171,345.082184 90.759148,340.965363 
	C68.556328,333.986267 50.714272,320.981842 38.709892,300.632294 
	C37.955311,299.353180 36.965332,298.212921 35.811188,296.852112 
	C34.541245,286.716187 33.544983,276.736206 33.054939,266.452454 
	C36.580666,272.554688 32.510056,279.891144 36.179775,286.219330 
	C36.219452,286.287750 35.915787,286.541290 35.954178,286.626404 
	C37.146641,289.269470 38.361790,291.902283 39.573456,294.536682 
	C40.959778,293.792542 43.347061,293.250275 43.545475,292.266541 
	C44.150040,289.269104 43.910629,286.101410 44.393986,283.004700 
	C46.170376,284.327698 47.818237,285.466797 48.861397,287.013702 
	C49.947559,288.624390 50.450050,290.628662 51.207756,292.460846 
	C52.859570,291.621155 54.511383,290.781464 55.976082,290.036896 
	C57.559673,290.920135 59.247292,291.861389 62.228107,293.523926 
	C61.176876,288.411072 60.438122,284.817993 59.796700,281.698334 
	C60.542744,277.866455 61.380966,274.140839 61.957214,270.375122 
	C62.281811,268.253876 61.867374,265.998566 62.326431,263.923248 
	C63.248779,259.753479 66.166824,258.978607 69.616150,261.756470 
	C67.806198,263.106415 65.401436,264.153900 65.117882,265.613495 
	C63.073277,276.138336 63.450298,286.661865 66.968102,296.855591 
	C67.441658,298.227875 69.820343,298.942688 71.316841,299.961945 
	C72.237915,298.421967 73.667709,296.965607 73.938271,295.318756 
	C74.213799,293.641663 73.239365,291.791382 73.004799,289.991821 
	C72.479950,285.965179 72.074760,281.922913 71.620834,277.887024 
	C73.634132,278.722046 75.903000,279.218719 77.586578,280.490295 
	C79.170952,281.686981 80.138031,283.700897 81.432785,285.430176 
	C75.446129,288.696991 74.811028,290.648529 77.087578,296.616272 
	C77.204559,296.922974 77.457863,297.184845 77.540924,297.496094 
	C78.161766,299.822540 78.755730,302.156158 79.358109,304.487549 
	C81.562958,303.791840 83.767807,303.096130 86.315155,302.292328 
	C86.467857,303.283539 86.915382,304.270264 86.681282,305.053192 
	C86.130074,306.896606 84.131805,309.579712 84.704216,310.265137 
	C87.104744,313.139465 90.235672,315.403778 93.461533,318.206390 
	C94.389008,316.326721 95.022331,315.043182 95.677063,313.716278 
	C98.177841,314.018280 100.703522,314.323273 102.266228,314.511993 
	C104.446632,318.621918 106.369339,322.246094 108.633133,326.303284 
	C107.633484,328.681732 106.484131,330.802032 104.905533,332.530273 
	C102.739769,334.901306 102.457962,336.680786 105.604103,338.299622 
	C109.979652,340.551025 114.347336,342.326660 119.315300,339.143127 
	C122.995789,340.447113 125.923096,343.637329 130.032043,341.564636 
	C130.095215,341.532806 130.677231,342.529602 131.017105,343.046326 
M89.762100,322.916351 
	C89.840553,319.146942 83.466408,311.364380 79.991379,311.337463 
	C78.888702,311.328918 77.213989,312.204254 76.813416,313.118652 
	C76.320168,314.244629 76.375038,316.233276 77.090073,317.147644 
	C79.125648,319.750641 81.367012,322.358734 84.047935,324.211639 
	C85.163788,324.982910 87.598770,323.845581 89.762100,322.916351 
z"/>
<path fill="#000000" opacity="1.000000" stroke="none" 
	d="
M235.138123,254.327087 
	C229.066910,260.929291 222.995697,267.531494 216.334045,273.961914 
	C214.634735,273.852936 213.525848,273.915741 212.416977,273.978546 
	C212.737488,275.082397 213.057999,276.186218 213.378510,277.290070 
	C212.550415,278.493927 211.722336,279.697784 210.182281,280.973846 
	C205.620956,279.948212 202.971268,280.454163 201.935425,285.148987 
	C201.291565,288.067108 198.999939,288.440155 196.683792,286.200684 
	C195.858322,285.402557 194.990829,284.495483 193.964462,284.098480 
	C192.838196,283.662842 191.417145,283.451599 190.308304,283.774170 
	C189.866684,283.902649 189.889740,285.720276 189.750519,286.775421 
	C189.520630,288.518127 189.817291,291.514740 189.047165,291.814819 
	C182.738403,294.273163 185.968750,298.299896 186.744720,302.135590 
	C185.992722,302.848267 185.496017,303.424133 184.665955,303.919098 
	C182.679626,303.078613 181.026627,302.319000 179.373642,301.559387 
	C179.233932,303.087769 179.280777,304.663239 178.910034,306.133362 
	C178.375107,308.254486 178.102264,311.141418 176.652451,312.114349 
	C175.458496,312.915558 172.716019,311.409241 169.986710,310.767242 
	C169.416275,312.556824 168.708145,314.778412 167.673187,317.083008 
	C166.897568,318.110687 166.448792,319.055328 165.555862,320.000000 
	C162.741348,320.000000 160.370972,320.000000 158.000305,320.000000 
	C158.000000,320.000000 157.999390,320.000000 157.999390,320.000000 
	C158.289749,316.493256 158.714508,312.989960 158.803513,309.478088 
	C158.838577,308.095490 158.041565,306.709686 157.769760,305.297180 
	C157.365173,303.194641 156.084991,300.286926 156.986252,299.125519 
	C158.494095,297.182465 161.653992,294.992126 163.716721,295.333588 
	C167.763367,296.003418 168.755264,294.414825 170.743607,291.402679 
	C173.556595,287.141266 177.693436,283.658264 181.628616,280.264923 
	C184.479294,277.806763 185.463593,272.626740 182.121307,269.841888 
	C176.375549,265.054413 178.540237,258.494385 177.485641,252.698013 
	C177.269287,251.508896 178.984955,249.872986 179.998016,248.591614 
	C180.593765,247.838089 181.696930,247.497269 182.336899,246.765350 
	C186.172760,242.378357 189.820175,238.064758 193.524597,247.024887 
	C193.886917,247.901260 196.840759,247.933655 198.596741,247.955704 
	C201.595093,247.993362 203.770218,249.271484 203.343658,252.230240 
	C203.195557,253.257568 200.244308,253.926575 198.533585,254.667465 
	C197.290756,255.205750 195.876312,255.435745 194.786789,256.171204 
	C194.548447,256.332062 195.221359,258.848724 195.717590,258.938599 
	C201.620316,260.007446 202.706039,264.189972 202.115540,269.232819 
	C203.023117,269.232819 203.611160,269.274994 203.618637,269.226868 
	C204.968903,260.547241 215.567551,257.518036 216.248398,248.273834 
	C216.556534,244.090103 218.045639,239.993347 219.307037,235.412674 
	C219.820129,234.948456 220.025177,234.928680 220.230209,234.908920 
	C222.793488,237.337509 225.356766,239.766098 228.047302,242.865173 
	C229.125076,244.020416 230.075592,244.505188 231.026093,244.989960 
	C232.258575,246.094559 233.491058,247.199158 234.861450,249.036392 
	C235.045624,251.288376 235.091873,252.807739 235.138123,254.327087 
M196.069687,281.534454 
	C197.501068,281.957367 198.932449,282.380280 200.363831,282.803192 
	C200.695847,282.195007 201.027847,281.586853 201.359848,280.978668 
	C199.050293,278.912781 196.740738,276.846893 194.431183,274.781006 
	C193.917221,275.238098 193.403259,275.695190 192.889297,276.152283 
	C193.772232,277.772064 194.655151,279.391876 196.069687,281.534454 
M229.499283,249.395996 
	C228.505371,248.755463 227.511475,248.114929 226.517578,247.474396 
	C226.149414,248.283218 225.781265,249.092041 225.413086,249.900864 
	C226.666824,249.934082 227.920547,249.967300 229.499283,249.395996 
M185.564087,288.763672 
	C185.820541,288.943665 186.076996,289.123627 186.333466,289.303619 
	C186.169250,289.036835 186.005035,288.770081 185.564087,288.763672 
z"/>
<path fill="#000000" opacity="1.000000" stroke="none" 
	d="
M324.733276,196.074249 
	C317.876068,193.978134 317.382080,191.433563 319.309479,184.905472 
	C321.123383,178.761627 325.917206,176.292206 330.167938,172.845642 
	C331.045624,172.133972 331.506592,170.827133 331.976501,169.717102 
	C332.420715,168.667755 332.316406,166.814316 332.982666,166.522293 
	C337.841095,164.392975 337.184479,160.584671 336.487732,156.589401 
	C336.361328,155.864609 336.869049,154.985443 337.204071,154.230850 
	C340.089386,147.731857 339.022278,146.081055 331.414917,145.999771 
	C332.034210,143.966217 333.085602,141.933762 334.529358,140.160767 
	C336.790802,141.560013 338.598175,142.845535 340.592316,143.690125 
	C340.909271,143.824371 342.893921,141.405457 342.705719,141.132126 
	C340.987671,138.636887 338.959198,136.355377 337.127991,133.755127 
	C337.206451,132.687393 337.178284,131.875992 337.150116,131.064590 
	C337.483826,129.612946 337.817566,128.161301 338.553589,126.231758 
	C339.325928,123.513092 339.695953,121.272324 340.065979,119.031555 
	C340.110382,118.574875 340.154755,118.118202 340.569824,117.194153 
	C340.990082,114.832176 341.039581,112.937569 341.089081,111.042961 
	C341.098267,109.962334 341.107452,108.881699 341.472321,107.293396 
	C341.618835,104.189751 341.409668,101.593796 341.200500,98.997833 
	C341.164337,98.247940 341.128174,97.498039 341.441406,96.276726 
	C342.129547,93.920197 342.531860,92.043892 342.794525,90.148239 
	C343.439758,85.491554 343.448792,80.628876 344.949249,76.274826 
	C345.449341,74.823700 349.703125,74.666145 352.240936,73.917236 
	C353.539459,76.685486 354.837982,79.453735 355.849335,82.651993 
	C355.301697,83.526215 355.041229,83.970428 354.780762,84.414642 
	C355.502838,84.610405 356.224945,84.806168 356.947021,85.001930 
	C357.700104,87.400475 358.453186,89.799026 358.789246,92.590279 
	C357.105957,93.816971 355.839661,94.650963 354.573364,95.484947 
	C355.857544,95.689987 357.138123,95.923500 358.427734,96.085243 
	C358.904205,96.145012 359.401886,96.035851 359.889893,96.003731 
	C360.495850,107.045280 361.101807,118.086838 361.303955,129.659088 
	C360.963135,130.804825 361.026123,131.419861 361.089081,132.034897 
	C360.912781,133.805328 360.736481,135.575745 359.979980,137.677231 
	C358.085297,138.661896 356.770813,139.315506 355.456299,139.969116 
	C356.650269,140.983017 357.844269,141.996918 359.038239,143.010818 
	C357.163269,148.836090 355.288300,154.661362 352.756042,160.740417 
	C346.893433,161.493439 345.861481,162.801361 346.715027,167.728378 
	C346.909088,168.848480 346.970795,169.991486 347.093384,171.123962 
	C347.093384,171.123962 347.049683,171.035767 346.719971,171.095016 
	C345.630371,172.533875 344.870422,173.913467 344.110474,175.293060 
	C337.749939,182.180145 331.389374,189.067200 324.733276,196.074249 
M343.478607,155.594452 
	C344.166016,156.210175 344.853394,156.825912 345.540802,157.441650 
	C345.898743,156.642853 346.256714,155.844070 346.614655,155.045273 
	C345.669891,155.038467 344.725159,155.031662 343.478607,155.594452 
M343.842010,134.459488 
	C344.497345,133.850922 345.152679,133.242355 345.808044,132.633804 
	C345.229889,132.243271 344.651733,131.852753 344.073608,131.462219 
	C343.842560,132.295822 343.611542,133.129425 343.842010,134.459488 
z"/>
<path fill="#000000" opacity="1.000000" stroke="none" 
	d="
M43.999733,283.000000 
	C43.910629,286.101410 44.150040,289.269104 43.545475,292.266541 
	C43.347061,293.250275 40.959778,293.792542 39.573456,294.536682 
	C38.361790,291.902283 37.146641,289.269470 35.954178,286.626404 
	C35.915787,286.541290 36.219452,286.287750 36.179775,286.219330 
	C32.510056,279.891144 36.580666,272.554688 33.207218,266.071594 
	C32.867069,264.922119 32.880856,263.849731 33.342358,262.264801 
	C34.123756,258.467804 34.457439,255.183319 34.791122,251.898834 
	C35.037964,250.477188 35.284798,249.055527 36.064545,247.264069 
	C39.731766,243.929504 42.866074,240.964752 46.336792,238.047455 
	C47.586674,238.222534 48.500141,238.350159 48.703163,238.378525 
	C49.647923,236.064667 50.133366,234.046707 51.246342,232.472382 
	C51.876602,231.580872 53.536789,231.417480 54.733101,230.926147 
	C53.832104,229.222198 53.142658,227.329742 51.897591,225.932358 
	C51.537193,225.527847 49.603363,226.709442 48.353584,226.865524 
	C46.862183,227.051773 45.330734,226.917404 43.816635,226.921906 
	C44.355213,225.741943 44.893787,224.561966 46.055840,223.170746 
	C48.458767,219.990051 50.238220,217.020584 52.017670,214.051117 
	C52.451363,213.435928 52.885056,212.820724 53.935986,212.080536 
	C55.701721,211.636795 56.850224,211.318054 57.998726,210.999298 
	C58.179840,211.843338 58.360950,212.687378 58.827225,214.036255 
	C59.741695,214.360931 60.371002,214.180771 61.000305,214.000610 
	C63.083557,212.668564 65.166817,211.336517 67.624878,210.002228 
	C68.024467,214.402359 68.360336,218.687363 62.006474,219.410660 
	C59.141701,219.736755 57.308472,227.503403 58.205273,232.916656 
	C58.978321,237.582886 59.706974,242.256485 60.466904,246.999527 
	C60.318604,247.164581 60.135483,247.571121 59.881943,247.621231 
	C51.565601,249.264359 50.612228,250.856934 52.604965,259.626648 
	C51.303951,260.915436 49.969490,261.661011 49.524193,262.765167 
	C48.732243,264.728973 48.478760,266.909882 47.783920,269.193085 
	C47.378525,269.924103 47.189266,270.462067 47.013809,271.375610 
	C47.765301,274.327942 48.061188,276.575745 45.299374,278.505463 
	C44.304874,279.200348 44.401211,281.456390 43.999733,283.000000 
z"/>
<path fill="#000000" opacity="1.000000" stroke="none" 
	d="
M352.235718,73.613289 
	C349.703125,74.666145 345.449341,74.823700 344.949249,76.274826 
	C343.448792,80.628876 343.439758,85.491554 342.794525,90.148239 
	C342.531860,92.043892 342.129547,93.920197 341.482635,95.902786 
	C338.734406,85.528214 337.063568,74.799240 333.671967,64.645020 
	C328.723572,49.830040 318.625916,38.644543 305.305359,29.679817 
	C305.074066,29.016819 305.092621,28.834427 305.111176,28.652033 
	C324.755249,36.527016 339.613678,49.777374 349.418701,68.750122 
	C348.718384,69.470032 348.318634,69.806030 347.918854,70.142029 
	C348.872681,70.321884 349.826477,70.501747 350.780273,70.681610 
	C351.263702,71.557526 351.747101,72.433434 352.235718,73.613289 
z"/>
<path fill="#000000" opacity="1.000000" stroke="none" 
	d="
M136.346497,158.059204 
	C135.536682,157.379318 135.073349,156.755753 134.248596,155.722687 
	C130.424026,152.137207 127.161400,148.681885 123.371460,145.961105 
	C122.281601,145.178696 119.437355,146.102036 117.831238,147.010330 
	C116.546638,147.736771 115.919708,149.626160 114.784531,151.192520 
	C114.378380,151.923767 114.188576,152.461884 113.659828,153.057602 
	C111.213989,155.742859 109.107101,158.370514 107.000214,160.998169 
	C105.671448,161.011276 104.342682,161.024384 102.618073,161.055969 
	C107.902519,154.849335 113.618927,148.656586 119.243965,142.381912 
	C121.273178,140.118347 122.890495,140.929443 124.654350,142.644516 
	C131.066452,148.879288 137.508362,155.083450 144.102631,161.600357 
	C141.741821,160.639557 139.217407,159.377548 136.346497,158.059204 
z"/>
<path fill="#000000" opacity="1.000000" stroke="none" 
	d="
M86.735443,177.195572 
	C88.235191,180.040985 87.532730,182.388031 86.152489,185.407898 
	C84.465530,189.098846 84.891922,193.731720 84.232498,197.930283 
	C84.023743,199.259430 83.263618,200.501984 82.755836,201.784164 
	C81.540070,200.985046 79.895157,200.451050 79.201981,199.329071 
	C77.938675,197.284286 77.239761,194.890808 76.315666,192.029846 
	C78.896912,187.648560 81.467873,183.880234 84.038841,180.111908 
	C84.840324,179.176468 85.641800,178.241028 86.735443,177.195572 
z"/>
<path fill="#000000" opacity="1.000000" stroke="none" 
	d="
M43.565002,227.125946 
	C45.330734,226.917404 46.862183,227.051773 48.353584,226.865524 
	C49.603363,226.709442 51.537193,225.527847 51.897591,225.932358 
	C53.142658,227.329742 53.832104,229.222198 54.733101,230.926147 
	C53.536789,231.417480 51.876602,231.580872 51.246342,232.472382 
	C50.133366,234.046707 49.647923,236.064667 48.703163,238.378525 
	C48.500141,238.350159 47.586674,238.222534 46.280491,237.703552 
	C44.514050,235.169937 43.140324,233.027710 41.766602,230.885468 
	C42.282196,229.700302 42.797783,228.515137 43.565002,227.125946 
z"/>
<path fill="#000000" opacity="1.000000" stroke="none" 
	d="
M41.521481,231.126755 
	C43.140324,233.027710 44.514050,235.169937 45.944077,237.656097 
	C42.866074,240.964752 39.731766,243.929504 36.239197,246.946869 
	C37.679405,241.788986 39.477882,236.578506 41.521481,231.126755 
z"/>
<path fill="#60C589" opacity="1.000000" stroke="none" 
	d="
M159.767059,176.731049 
	C153.149002,174.975372 149.091904,170.043198 146.006378,163.720352 
	C150.536011,167.736130 155.086990,172.082047 159.767059,176.731049 
z"/>
<path fill="#BDCCCA" opacity="1.000000" stroke="none" 
	d="
M279.626892,21.964140 
	C273.547119,22.366734 267.126709,22.542952 260.376312,22.478554 
	C266.459656,22.071213 272.872955,21.904490 279.626892,21.964140 
z"/>
<path fill="#B4C9C8" opacity="1.000000" stroke="none" 
	d="
M347.393860,170.965637 
	C346.970795,169.991486 346.909088,168.848480 346.715027,167.728378 
	C345.861481,162.801361 346.893433,161.493439 352.495239,160.995026 
	C351.159302,164.266327 349.426788,167.536819 347.393860,170.965637 
z"/>
<path fill="#5FCA87" opacity="1.000000" stroke="none" 
	d="
M72.999084,194.003052 
	C73.417946,195.976700 73.836807,197.950348 74.255669,199.923996 
	C72.400078,200.051270 70.544479,200.178543 68.344429,199.770920 
	C67.993027,198.471649 67.986092,197.707291 67.979149,196.942932 
	C68.750771,196.026337 69.522400,195.109726 70.929642,194.085236 
	C72.043198,193.985901 72.521141,193.994476 72.999084,194.003052 
z"/>
<path fill="#60C589" opacity="1.000000" stroke="none" 
	d="
M73.264977,193.860535 
	C72.521141,193.994476 72.043198,193.985901 71.206451,193.960144 
	C75.042343,189.420105 79.237030,184.897247 83.735275,180.243134 
	C81.467873,183.880234 78.896912,187.648560 76.163101,191.707840 
	C75.177124,192.571854 74.353996,193.144943 73.264977,193.860535 
z"/>
<path fill="#60C589" opacity="1.000000" stroke="none" 
	d="
M179.696777,195.753235 
	C174.565918,194.077713 170.020630,191.301300 168.042236,185.257263 
	C171.889572,188.405167 175.734283,191.925797 179.696777,195.753235 
z"/>
<path fill="#BDCCCA" opacity="1.000000" stroke="none" 
	d="
M304.865479,28.416702 
	C305.092621,28.834427 305.074066,29.016819 305.027710,29.470842 
	C299.719177,27.901665 294.438416,26.060856 288.992615,23.929111 
	C294.091614,25.152575 299.355682,26.666973 304.865479,28.416702 
z"/>
<path fill="#BDCCCA" opacity="1.000000" stroke="none" 
	d="
M159.456543,96.766006 
	C156.753357,100.120178 153.717041,103.549896 150.335815,106.988136 
	C153.035080,103.611618 156.079239,100.226585 159.456543,96.766006 
z"/>
<path fill="#60C589" opacity="1.000000" stroke="none" 
	d="
M220.073700,234.607162 
	C220.025177,234.928680 219.820129,234.948456 219.306931,234.991180 
	C218.249405,235.009598 217.500015,235.005051 216.141388,234.771378 
	C214.688492,234.361084 213.844864,234.179932 213.001221,233.998779 
	C212.679535,231.914841 212.357849,229.830902 212.026367,227.350037 
	C214.650116,229.403885 217.283646,231.854645 220.073700,234.607162 
z"/>
<path fill="#BDCCCA" opacity="1.000000" stroke="none" 
	d="
M187.462738,66.786392 
	C184.746826,70.115440 181.703461,73.536407 178.316345,76.971863 
	C181.026810,73.617004 184.081070,70.247658 187.462738,66.786392 
z"/>
<path fill="#60C589" opacity="1.000000" stroke="none" 
	d="
M194.058853,209.617523 
	C188.963654,210.416672 187.533813,206.537674 186.004776,202.391357 
	C188.627304,204.456680 191.263779,206.886902 194.058853,209.617523 
z"/>
<path fill="#60C589" opacity="1.000000" stroke="none" 
	d="
M51.722889,214.205841 
	C50.238220,217.020584 48.458767,219.990051 46.312386,222.969772 
	C47.773003,220.106873 49.600555,217.233734 51.722889,214.205841 
z"/>
<path fill="#B4C9C8" opacity="1.000000" stroke="none" 
	d="
M359.268311,142.718292 
	C357.844269,141.996918 356.650269,140.983017 355.456299,139.969116 
	C356.770813,139.315506 358.085297,138.661896 359.791595,138.008789 
	C359.955048,139.481445 359.726715,140.953613 359.268311,142.718292 
z"/>
<path fill="#BDCCCA" opacity="1.000000" stroke="none" 
	d="
M251.754013,23.365700 
	C248.509674,24.569016 244.880341,25.665560 240.844635,26.616386 
	C244.081848,25.400089 247.725433,24.329510 251.754013,23.365700 
z"/>
<path fill="#BDCCCA" opacity="1.000000" stroke="none" 
	d="
M232.767639,29.346327 
	C229.870117,31.208691 226.615845,33.030132 222.985748,34.781857 
	C225.876923,32.909893 229.143906,31.107649 232.767639,29.346327 
z"/>
<path fill="#B4C9C8" opacity="1.000000" stroke="none" 
	d="
M359.952240,95.681366 
	C359.401886,96.035851 358.904205,96.145012 358.427734,96.085243 
	C357.138123,95.923500 355.857544,95.689987 354.573364,95.484947 
	C355.839661,94.650963 357.105957,93.816971 358.754761,92.974152 
	C359.429749,93.763214 359.722168,94.561111 359.952240,95.681366 
z"/>
<path fill="#60C589" opacity="1.000000" stroke="none" 
	d="
M34.588547,252.221359 
	C34.457439,255.183319 34.123756,258.467804 33.445251,261.874176 
	C33.528938,258.845337 33.957455,255.694611 34.588547,252.221359 
z"/>
<path fill="#BDCCCA" opacity="1.000000" stroke="none" 
	d="
M145.372986,111.803650 
	C143.689545,114.138840 141.681076,116.547234 139.328461,118.974335 
	C141.005508,116.620987 143.026749,114.248924 145.372986,111.803650 
z"/>
<path fill="#BDCCCA" opacity="1.000000" stroke="none" 
	d="
M209.658112,44.028099 
	C208.138809,45.937073 206.285583,47.892830 204.078705,49.833046 
	C205.591446,47.903301 207.457809,45.989094 209.658112,44.028099 
z"/>
<path fill="#60C589" opacity="1.000000" stroke="none" 
	d="
M58.147560,210.667282 
	C56.850224,211.318054 55.701721,211.636795 54.188847,211.943741 
	C55.356541,210.063690 56.888607,208.195435 58.722755,206.198547 
	C58.782017,207.491684 58.539204,208.913483 58.147560,210.667282 
z"/>
<path fill="#60C589" opacity="1.000000" stroke="none" 
	d="
M204.687759,219.761017 
	C202.921692,218.499146 201.031372,216.937485 199.132477,214.999451 
	C200.937103,216.235794 202.750320,217.848511 204.687759,219.761017 
z"/>
<path fill="#BDCCCA" opacity="1.000000" stroke="none" 
	d="
M169.540543,85.873581 
	C168.463699,87.509560 167.062576,89.226967 165.315308,90.964600 
	C166.384857,89.308220 167.800568,87.631622 169.540543,85.873581 
z"/>
<path fill="#BDCCCA" opacity="1.000000" stroke="none" 
	d="
M215.685516,39.048862 
	C214.605392,40.397747 213.191818,41.757240 211.425369,43.081928 
	C212.499023,41.717903 213.925552,40.388683 215.685516,39.048862 
z"/>
<path fill="#60C589" opacity="1.000000" stroke="none" 
	d="
M235.448822,254.200302 
	C235.091873,252.807739 235.045624,251.288376 234.999588,249.316254 
	C235.962509,250.037735 236.925217,251.211990 238.049500,252.679001 
	C237.393875,253.339020 236.576706,253.706268 235.448822,254.200302 
z"/>
<path fill="#60C589" opacity="1.000000" stroke="none" 
	d="
M184.840729,200.720520 
	C183.642822,199.967560 182.324402,198.921783 180.976044,197.519867 
	C182.204117,198.251724 183.462173,199.339722 184.840729,200.720520 
z"/>
<path fill="#60C589" opacity="1.000000" stroke="none" 
	d="
M92.643295,170.979431 
	C91.877426,172.217346 90.818581,173.596970 89.384537,174.989716 
	C90.123001,173.708939 91.236664,172.415039 92.643295,170.979431 
z"/>
<path fill="#BDCCCA" opacity="1.000000" stroke="none" 
	d="
M257.806458,22.358540 
	C256.914185,22.868320 255.682495,23.233498 254.239136,23.373154 
	C255.174011,22.836401 256.320526,22.525169 257.806458,22.358540 
z"/>
<path fill="#B4C9C8" opacity="1.000000" stroke="none" 
	d="
M344.407532,175.136902 
	C344.870422,173.913467 345.630371,172.533875 346.762878,171.119141 
	C346.325165,172.382935 345.514893,173.681839 344.407532,175.136902 
z"/>
<path fill="#BDCCCA" opacity="1.000000" stroke="none" 
	d="
M285.699158,22.896248 
	C284.684753,23.098360 283.395050,23.062017 281.982544,22.747345 
	C283.047760,22.531939 284.235809,22.594864 285.699158,22.896248 
z"/>
<path fill="#BDCCCA" opacity="1.000000" stroke="none" 
	d="
M199.513153,53.813419 
	C199.066818,54.778408 198.303482,55.814133 197.188660,56.847706 
	C197.623489,55.858421 198.409821,54.871284 199.513153,53.813419 
z"/>
<path fill="#BDCCCA" opacity="1.000000" stroke="none" 
	d="
M196.528809,56.899734 
	C196.115799,57.877785 195.387131,58.917305 194.314438,59.970802 
	C194.717987,58.976921 195.465561,57.969059 196.528809,56.899734 
z"/>
<path fill="#BDCCCA" opacity="1.000000" stroke="none" 
	d="
M148.285797,108.590370 
	C147.884064,109.582298 147.170441,110.660973 146.091415,111.720978 
	C146.475311,110.693916 147.224625,109.685516 148.285797,108.590370 
z"/>
<path fill="#B4C9C8" opacity="1.000000" stroke="none" 
	d="
M356.975616,84.709755 
	C356.224945,84.806168 355.502838,84.610405 354.780762,84.414642 
	C355.041229,83.970428 355.301697,83.526215 355.853607,83.020416 
	C356.431458,83.445076 356.717834,83.931328 356.975616,84.709755 
z"/>
<path fill="#BDCCCA" opacity="1.000000" stroke="none" 
	d="
M136.719879,121.097351 
	C137.060120,122.075996 137.092575,123.111374 137.091187,124.534790 
	C136.842270,123.666580 136.627197,122.410339 136.719879,121.097351 
z"/>
<path fill="#60C589" opacity="1.000000" stroke="none" 
	d="
M67.688194,197.062088 
	C67.986092,197.707291 67.993027,198.471649 67.999680,199.617599 
	C67.231903,199.997635 66.464432,199.996094 65.312195,199.983032 
	C65.750710,199.041428 66.573975,198.111343 67.688194,197.062088 
z"/>
<path fill="#60C589" opacity="1.000000" stroke="none" 
	d="
M230.893066,244.695953 
	C230.075592,244.505188 229.125076,244.020416 228.113953,243.192139 
	C228.955551,243.366409 229.857788,243.884186 230.893066,244.695953 
z"/>
<path fill="#B8CCCA" opacity="1.000000" stroke="none" 
	d="
M350.772400,70.440842 
	C349.826477,70.501747 348.872681,70.321884 347.918854,70.142029 
	C348.318634,69.806030 348.718384,69.470032 349.486969,69.133881 
	C350.158691,69.489182 350.461609,69.844635 350.772400,70.440842 
z"/>
<path fill="#BDCCCA" opacity="1.000000" stroke="none" 
	d="
M137.118073,125.249077 
	C137.723282,125.397705 138.367630,125.849236 139.025024,126.617859 
	C138.411118,126.473961 137.784180,126.012970 137.118073,125.249077 
z"/>
<path fill="#B4C9C8" opacity="1.000000" stroke="none" 
	d="
M361.253967,131.812805 
	C361.026123,131.419861 360.963135,130.804825 361.114105,130.092255 
	C361.358307,130.526733 361.388580,131.058731 361.253967,131.812805 
z"/>
<path fill="#BDCCCA" opacity="1.000000" stroke="none" 
	d="
M218.691605,37.013927 
	C218.420837,37.615776 217.830063,38.209057 216.898636,38.731987 
	C217.162537,38.109547 217.767075,37.557453 218.691605,37.013927 
z"/>
<path fill="#BDCCCA" opacity="1.000000" stroke="none" 
	d="
M237.801758,27.226971 
	C237.416321,27.763893 236.726181,28.219223 235.721558,28.536182 
	C236.103729,27.980331 236.800400,27.562855 237.801758,27.226971 
z"/>
<path fill="#B4C9C8" opacity="1.000000" stroke="none" 
	d="
M337.021362,134.011444 
	C338.959198,136.355377 340.987671,138.636887 342.705719,141.132126 
	C342.893921,141.405457 340.909271,143.824371 340.592316,143.690125 
	C338.598175,142.845535 336.790802,141.560013 334.836975,140.006104 
	C334.868683,138.638397 334.985138,137.684845 335.464813,136.291229 
	C336.225830,135.237930 336.623596,134.624680 337.021362,134.011444 
z"/>
<path fill="#BFD1CD" opacity="1.000000" stroke="none" 
	d="
M341.132904,99.438354 
	C341.409668,101.593796 341.618835,104.189751 341.529175,106.891670 
	C341.175385,104.624710 341.120361,102.251785 341.132904,99.438354 
z"/>
<path fill="#BFD1CD" opacity="1.000000" stroke="none" 
	d="
M339.819702,119.294998 
	C339.695953,121.272324 339.325928,123.513092 338.665527,125.873116 
	C338.774628,123.847717 339.174011,121.703079 339.819702,119.294998 
z"/>
<path fill="#BFD1CD" opacity="1.000000" stroke="none" 
	d="
M340.841980,111.329994 
	C341.039581,112.937569 340.990082,114.832176 340.642761,116.857422 
	C340.428253,115.197716 340.511566,113.407372 340.841980,111.329994 
z"/>
<path fill="#BFD1CD" opacity="1.000000" stroke="none" 
	d="
M337.127991,133.755127 
	C336.623596,134.624680 336.225830,135.237930 335.559570,135.937149 
	C335.740234,134.518112 336.189392,133.013077 336.894348,131.286316 
	C337.178284,131.875992 337.206451,132.687393 337.127991,133.755127 
z"/>
<path fill="#60C98A" opacity="1.000000" stroke="none" 
	d="
M119.000000,339.000000 
	C114.347336,342.326660 109.979652,340.551025 105.604103,338.299622 
	C102.457962,336.680786 102.739769,334.901306 104.905533,332.530273 
	C106.484131,330.802032 107.633484,328.681732 108.987106,326.368103 
	C110.791100,322.879089 112.664680,322.422546 114.845619,325.695923 
	C117.074165,329.040802 119.213043,328.546356 121.355942,325.481262 
	C122.960724,323.185852 125.310211,321.672699 127.411034,324.389313 
	C130.343994,328.182007 132.832718,327.153015 136.218033,324.293579 
	C140.442276,323.325714 144.083694,322.666351 147.723358,321.997620 
	C149.483902,321.674164 151.241226,321.333099 153.000000,321.000000 
	C154.421860,320.674500 155.843719,320.348999 157.632492,320.011780 
	C157.999390,320.000000 158.000000,320.000000 158.000137,320.333313 
	C158.000183,321.111115 158.000092,321.555542 157.725494,322.159332 
	C156.967316,323.212433 156.483658,324.106232 155.622864,325.003754 
	C153.163818,327.005005 151.081924,329.002502 148.695038,331.066010 
	C147.926727,331.754669 147.463364,332.377350 146.849472,333.275482 
	C145.799088,334.700653 144.899246,335.850342 143.645142,337.054504 
	C137.862411,338.098328 132.586670,341.637177 127.158775,336.083923 
	C124.333618,333.193573 119.609215,335.363129 119.000000,339.000000 
M144.140778,329.272766 
	C144.573700,329.537018 145.006622,329.801270 145.439545,330.065521 
	C145.435684,329.340698 145.431808,328.615845 145.427948,327.891022 
	C144.997986,328.160583 144.568024,328.430115 144.140778,329.272766 
z"/>
<path fill="#60C988" opacity="1.000000" stroke="none" 
	d="
M44.393986,283.004700 
	C44.401211,281.456390 44.304874,279.200348 45.299374,278.505463 
	C48.061188,276.575745 47.765301,274.327942 47.325577,271.365173 
	C48.205784,270.635834 48.788021,270.292480 49.370262,269.949158 
	C48.913525,269.632782 48.456791,269.316376 48.000053,269.000000 
	C48.478760,266.909882 48.732243,264.728973 49.524193,262.765167 
	C49.969490,261.661011 51.303951,260.915436 52.618774,260.004150 
	C55.215771,262.819824 57.431828,265.639679 59.395237,268.138031 
	C59.376362,268.402618 59.489811,267.598938 59.482227,266.796356 
	C59.409508,259.099548 64.736282,255.797241 71.778976,259.218384 
	C73.102425,259.861298 74.346130,260.668365 75.391434,261.699829 
	C73.748840,262.007599 72.341454,262.015228 70.689636,261.957275 
	C70.297920,261.809387 70.150627,261.727112 70.003334,261.644836 
	C66.166824,258.978607 63.248779,259.753479 62.326431,263.923248 
	C61.867374,265.998566 62.281811,268.253876 61.957214,270.375122 
	C61.380966,274.140839 60.542744,277.866455 59.796700,281.698334 
	C60.438122,284.817993 61.176876,288.411072 62.228107,293.523926 
	C59.247292,291.861389 57.559673,290.920135 55.976082,290.036896 
	C54.511383,290.781464 52.859570,291.621155 51.207756,292.460846 
	C50.450050,290.628662 49.947559,288.624390 48.861397,287.013702 
	C47.818237,285.466797 46.170376,284.327698 44.393986,283.004700 
z"/>
<path fill="#E6F7EF" opacity="1.000000" stroke="none" 
	d="
M69.616150,261.756470 
	C70.150627,261.727112 70.297920,261.809387 70.837318,262.346924 
	C71.467278,266.872620 71.705124,270.943085 71.942970,275.013519 
	C71.850189,275.730560 71.757408,276.447601 71.642731,277.525818 
	C72.074760,281.922913 72.479950,285.965179 73.004799,289.991821 
	C73.239365,291.791382 74.213799,293.641663 73.938271,295.318756 
	C73.667709,296.965607 72.237915,298.421967 71.316841,299.961945 
	C69.820343,298.942688 67.441658,298.227875 66.968102,296.855591 
	C63.450298,286.661865 63.073277,276.138336 65.117882,265.613495 
	C65.401436,264.153900 67.806198,263.106415 69.616150,261.756470 
z"/>
<path fill="#60C589" opacity="1.000000" stroke="none" 
	d="
M152.997391,320.609375 
	C151.241226,321.333099 149.483902,321.674164 147.723358,321.997620 
	C144.083694,322.666351 140.442276,323.325714 136.400787,323.994476 
	C135.130188,320.502899 135.759369,315.851135 129.727646,316.469452 
	C128.929565,316.551270 127.958679,314.947235 126.551582,313.646881 
	C129.240570,312.256317 131.221802,311.231781 132.481430,310.580383 
	C135.107925,312.856964 137.070847,315.340210 139.634415,316.538361 
	C141.768265,317.535736 144.954453,317.872955 147.064880,317.010590 
	C152.056351,314.971008 152.058350,314.689087 152.997391,320.609375 
z"/>
<path fill="#DEF4E9" opacity="1.000000" stroke="none" 
	d="
M82.836800,244.560043 
	C81.297325,246.053482 79.757843,247.546906 78.037323,249.284897 
	C76.129982,248.982666 73.277390,248.814285 72.937218,247.801788 
	C72.406166,246.221069 73.577774,244.068314 74.164444,241.856873 
	C75.257820,240.651245 76.073654,239.452316 77.204369,238.910400 
	C78.938217,238.079453 80.888832,237.700806 82.747444,237.130173 
	C83.117455,239.148392 83.487465,241.166595 83.543381,243.581635 
	C83.024483,244.122375 82.893654,244.316238 82.836800,244.560043 
z"/>
<path fill="#60C589" opacity="1.000000" stroke="none" 
	d="
M72.325836,274.935486 
	C71.705124,270.943085 71.467278,266.872620 71.081741,262.412537 
	C72.341454,262.015228 73.748840,262.007599 75.577965,262.000000 
	C75.665741,264.698364 75.528427,267.441559 74.926605,270.078827 
	C74.544518,271.753204 73.471741,273.269989 72.325836,274.935486 
z"/>
<path fill="#60C98A" opacity="1.000000" stroke="none" 
	d="
M212.832108,234.297638 
	C213.844864,234.179932 214.688492,234.361084 215.766678,234.771118 
	C215.279739,236.630966 214.852707,238.515289 213.739426,239.809097 
	C212.916107,240.765900 211.199127,240.953720 209.880310,241.484131 
	C209.940414,240.167221 209.685242,238.723434 210.149734,237.569275 
	C210.609695,236.426315 211.795517,235.575455 212.832108,234.297638 
z"/>
<path fill="#5FCA87" opacity="1.000000" stroke="none" 
	d="
M115.000877,150.999390 
	C115.919708,149.626160 116.546638,147.736771 117.831238,147.010330 
	C119.437355,146.102036 122.281601,145.178696 123.371460,145.961105 
	C127.161400,148.681885 130.424026,152.137207 133.943588,155.656296 
	C128.143738,162.735291 119.809830,163.359573 111.862808,164.621262 
	C110.443588,164.846603 108.658127,162.765076 107.020988,161.373444 
	C109.107101,158.370514 111.213989,155.742859 113.928284,153.010681 
	C114.690758,152.270569 114.845810,151.634979 115.000877,150.999390 
z"/>
<path fill="#5FCA87" opacity="1.000000" stroke="none" 
	d="
M89.940018,191.238373 
	C86.565208,187.036865 90.516113,186.645676 93.104576,184.472046 
	C93.805984,188.114410 95.558708,191.142883 89.940018,191.238373 
z"/>
<path fill="#5FCA87" opacity="1.000000" stroke="none" 
	d="
M82.879539,245.000885 
	C82.893654,244.316238 83.024483,244.122375 83.390724,243.905899 
	C84.976311,244.556198 86.400467,245.279068 87.824631,246.001923 
	C87.016327,247.258286 86.208031,248.514664 85.399750,249.771042 
	C84.573929,248.327927 83.748108,246.884827 82.879539,245.000885 
z"/>
<path fill="#5FCA87" opacity="1.000000" stroke="none" 
	d="
M60.666908,214.000458 
	C60.371002,214.180771 59.741695,214.360931 59.056149,214.270844 
	C59.444439,214.000519 59.888973,214.000427 60.666908,214.000458 
z"/>
<path fill="#61CA8B" opacity="1.000000" stroke="none" 
	d="
M149.000000,331.000000 
	C151.081924,329.002502 153.163818,327.005005 155.961563,324.989380 
	C157.118256,323.980835 157.559128,322.990417 158.000000,322.000000 
	C158.000092,321.555542 158.000183,321.111115 158.000443,320.333313 
	C160.370972,320.000000 162.741348,320.000000 165.830383,319.840698 
	C167.032700,318.787567 167.516342,317.893799 168.000000,317.000000 
	C168.708145,314.778412 169.416275,312.556824 169.986710,310.767242 
	C172.716019,311.409241 175.458496,312.915558 176.652451,312.114349 
	C178.102264,311.141418 178.375107,308.254486 178.910034,306.133362 
	C179.280777,304.663239 179.233932,303.087769 179.373642,301.559387 
	C181.026627,302.319000 182.679626,303.078613 184.666351,304.328064 
	C185.015060,305.912476 185.030045,307.006989 185.045044,308.101532 
	C181.461990,312.185577 177.878937,316.269623 174.139481,320.642578 
	C168.285126,325.400879 162.797119,330.181122 156.811020,334.223785 
	C153.180450,336.675629 148.779343,337.986481 144.357361,339.460754 
	C143.993332,338.407715 143.996368,337.703857 143.999390,337.000000 
	C144.899246,335.850342 145.799088,334.700653 147.154434,333.209473 
	C148.073288,332.245331 148.536636,331.622650 149.000000,331.000000 
z"/>
<path fill="#61CA8B" opacity="1.000000" stroke="none" 
	d="
M187.000000,301.998779 
	C185.968750,298.299896 182.738403,294.273163 189.047165,291.814819 
	C189.817291,291.514740 189.520630,288.518127 189.750519,286.775421 
	C189.889740,285.720276 189.866684,283.902649 190.308304,283.774170 
	C191.417145,283.451599 192.838196,283.662842 193.964462,284.098480 
	C194.990829,284.495483 195.858322,285.402557 196.683792,286.200684 
	C198.999939,288.440155 201.291565,288.067108 201.935425,285.148987 
	C202.971268,280.454163 205.620956,279.948212 209.886078,281.079163 
	C204.036636,287.956116 197.771423,294.799988 190.820709,301.815186 
	C189.090134,301.990601 188.045074,301.994690 187.000000,301.998779 
z"/>
<path fill="#60C589" opacity="1.000000" stroke="none" 
	d="
M186.744720,302.135590 
	C188.045074,301.994690 189.090134,301.990601 190.524963,301.977936 
	C189.148697,303.902130 187.382675,305.834869 185.330841,307.934570 
	C185.030045,307.006989 185.015060,305.912476 184.999680,304.408966 
	C185.496017,303.424133 185.992722,302.848267 186.744720,302.135590 
z"/>
<path fill="#60C589" opacity="1.000000" stroke="none" 
	d="
M213.666443,277.183563 
	C213.057999,276.186218 212.737488,275.082397 212.416977,273.978546 
	C213.525848,273.915741 214.634735,273.852936 216.013306,274.076111 
	C215.506775,275.267059 214.730576,276.172058 213.666443,277.183563 
z"/>
<path fill="#60CA8A" opacity="1.000000" stroke="none" 
	d="
M143.645142,337.054504 
	C143.996368,337.703857 143.993332,338.407715 143.982529,339.460358 
	C139.927505,340.887634 135.880264,341.966125 131.425049,343.045471 
	C130.677231,342.529602 130.095215,341.532806 130.032043,341.564636 
	C125.923096,343.637329 122.995789,340.447113 119.315300,339.143127 
	C119.609215,335.363129 124.333618,333.193573 127.158775,336.083923 
	C132.586670,341.637177 137.862411,338.098328 143.645142,337.054504 
z"/>
<path fill="#E1F5EB" opacity="1.000000" stroke="none" 
	d="
M89.598007,323.246216 
	C87.598770,323.845581 85.163788,324.982910 84.047935,324.211639 
	C81.367012,322.358734 79.125648,319.750641 77.090073,317.147644 
	C76.375038,316.233276 76.320168,314.244629 76.813416,313.118652 
	C77.213989,312.204254 78.888702,311.328918 79.991379,311.337463 
	C83.466408,311.364380 89.840553,319.146942 89.598007,323.246216 
z"/>
<path fill="#5FCA87" opacity="1.000000" stroke="none" 
	d="
M195.803879,281.273071 
	C194.655151,279.391876 193.772232,277.772064 192.889297,276.152283 
	C193.403259,275.695190 193.917221,275.238098 194.431183,274.781006 
	C196.740738,276.846893 199.050293,278.912781 201.359848,280.978668 
	C201.027847,281.586853 200.695847,282.195007 200.363831,282.803192 
	C198.932449,282.380280 197.501068,281.957367 195.803879,281.273071 
z"/>
<path fill="#5FCA87" opacity="1.000000" stroke="none" 
	d="
M229.336792,249.698273 
	C227.920547,249.967300 226.666824,249.934082 225.413086,249.900864 
	C225.781265,249.092041 226.149414,248.283218 226.517578,247.474396 
	C227.511475,248.114929 228.505371,248.755463 229.336792,249.698273 
z"/>
<path fill="#60CA8A" opacity="1.000000" stroke="none" 
	d="
M167.673187,317.083008 
	C167.516342,317.893799 167.032700,318.787567 166.274536,319.840698 
	C166.448792,319.055328 166.897568,318.110687 167.673187,317.083008 
z"/>
<path fill="#5FCA87" opacity="1.000000" stroke="none" 
	d="
M185.702454,288.633484 
	C186.005035,288.770081 186.169250,289.036835 186.333466,289.303619 
	C186.076996,289.123627 185.820541,288.943665 185.702454,288.633484 
z"/>
<path fill="#B4C9C8" opacity="1.000000" stroke="none" 
	d="
M343.629517,155.309662 
	C344.725159,155.031662 345.669891,155.038467 346.614655,155.045273 
	C346.256714,155.844070 345.898743,156.642853 345.540802,157.441650 
	C344.853394,156.825912 344.166016,156.210175 343.629517,155.309662 
z"/>
<path fill="#B4C9C8" opacity="1.000000" stroke="none" 
	d="
M343.611267,134.211243 
	C343.611542,133.129425 343.842560,132.295822 344.073608,131.462219 
	C344.651733,131.852753 345.229889,132.243271 345.808044,132.633789 
	C345.152679,133.242355 344.497345,133.850922 343.611267,134.211243 
z"/>
<path fill="#60C589" opacity="1.000000" stroke="none" 
	d="
M47.783920,269.193085 
	C48.456791,269.316376 48.913525,269.632782 49.370262,269.949158 
	C48.788021,270.292480 48.205784,270.635834 47.311775,270.989563 
	C47.189266,270.462067 47.378525,269.924103 47.783920,269.193085 
z"/>
<path fill="#61CC8A" opacity="1.000000" stroke="none" 
	d="
M114.784523,151.192520 
	C114.845810,151.634979 114.690758,152.270569 114.267242,152.953079 
	C114.188576,152.461884 114.378380,151.923767 114.784523,151.192520 
z"/>
<path fill="#60CA8A" opacity="1.000000" stroke="none" 
	d="
M144.139435,328.986206 
	C144.568024,328.430115 144.997986,328.160583 145.427948,327.891022 
	C145.431808,328.615845 145.435684,329.340698 145.439545,330.065521 
	C145.006622,329.801270 144.573700,329.537018 144.139435,328.986206 
z"/>
<path fill="#60CA8A" opacity="1.000000" stroke="none" 
	d="
M157.725479,322.159332 
	C157.559128,322.990417 157.118256,323.980835 156.338715,324.985657 
	C156.483658,324.106232 156.967316,323.212433 157.725479,322.159332 
z"/>
<path fill="#60CA8A" opacity="1.000000" stroke="none" 
	d="
M148.695038,331.066010 
	C148.536636,331.622650 148.073288,332.245331 147.304962,332.934021 
	C147.463364,332.377350 147.926727,331.754669 148.695038,331.066010 
z"/>
</svg>